<svg xmlns="http://www.w3.org/2000/svg" viewBox="0 0 24 24"><defs><style>.a{fill:#212121;stroke:#212121;}.b,.e{fill:#fff;}.c,.e{stroke:none;}.d{fill:none;}</style></defs><g transform="translate(-919 -442)"><g class="a" transform="translate(919 442)"><circle class="c" cx="12" cy="12" r="12"/><circle class="d" cx="12" cy="12" r="11.5"/></g><g transform="translate(926.2 449.2)"><g class="b" transform="translate(0 0)"><path class="c" d="M 5.033200263977051 9.100000381469727 L 4.700000286102295 9.100000381469727 L 4.700000286102295 5.533200263977051 L 4.700000286102295 5.033200263977051 L 4.200000286102295 5.033200263977051 L 0.5000001788139343 5.033200263977051 L 0.5000001788139343 4.700000286102295 L 4.200000286102295 4.700000286102295 L 4.700000286102295 4.700000286102295 L 4.700000286102295 4.200000286102295 L 4.700000286102295 0.5000001788139343 L 5.033200263977051 0.5000001788139343 L 5.033200263977051 4.200000286102295 L 5.033200263977051 4.700000286102295 L 5.533200263977051 4.700000286102295 L 9.100000381469727 4.700000286102295 L 9.100000381469727 5.033200263977051 L 5.533200263977051 5.033200263977051 L 5.033200263977051 5.033200263977051 L 5.033200263977051 5.533200263977051 L 5.033200263977051 9.100000381469727 Z"/><path class="e" d="M 5.533200263977051 9.600000381469727 L 4.200000286102295 9.600000381469727 L 4.200000286102295 5.533200263977051 L 1.907348661234209e-07 5.533200263977051 L 1.907348661234209e-07 4.200000286102295 L 4.200000286102295 4.200000286102295 L 4.200000286102295 1.907348661234209e-07 L 5.533200263977051 1.907348661234209e-07 L 5.533200263977051 4.200000286102295 L 9.600000381469727 4.200000286102295 L 9.600000381469727 5.533200263977051 L 5.533200263977051 5.533200263977051 L 5.533200263977051 9.600000381469727 Z"/></g></g></g></svg>